<svg width="1380" height="377" viewBox="0 0 1380 377" fill="none" xmlns="http://www.w3.org/2000/svg">
<path d="M239 79.6C238.333 92.2667 233.733 102.867 225.2 111.4C216.667 119.933 204.067 126.333 187.4 130.6C170.867 134.867 149.933 137 124.6 137C105.267 137 87.9333 135.933 72.6 133.8C57.2667 131.8 44.2 128.333 33.4 123.4C22.6 118.333 14.3333 111.467 8.6 102.8C2.86667 94.1333 4.76837e-07 83.2 4.76837e-07 70C4.76837e-07 56.8 2.86667 45.8 8.6 37C14.3333 28.0667 22.6 21 33.4 15.8C44.2 10.4667 57.2667 6.66666 72.6 4.4C87.9333 2.13333 105.267 0.999995 124.6 0.999995C149.933 0.999995 170.933 3.33333 187.6 8C204.267 12.5333 216.867 19.2667 225.4 28.2C233.933 37.1333 238.533 48 239.2 60.8H187.2C185.6 56.5333 182.667 52.8 178.4 49.6C174.133 46.2667 167.733 43.6667 159.2 41.8C150.667 39.9333 139.133 39 124.6 39C107.533 39 93.6667 40.0667 83 42.2C72.3333 44.2 64.5333 47.4667 59.6 52C54.6667 56.5333 52.2 62.5333 52.2 70C52.2 76.8 54.6667 82.3333 59.6 86.6C64.5333 90.8667 72.3333 94 83 96C93.6667 98 107.533 99 124.6 99C139.133 99 150.6 98.1333 159 96.4C167.533 94.6667 173.933 92.3333 178.2 89.4C182.467 86.3333 185.4 83.0667 187 79.6H239ZM384.281 137C355.215 137 331.815 134.467 314.081 129.4C296.348 124.2 283.415 116.6 275.281 106.6C267.281 96.4667 263.281 83.9333 263.281 69C263.281 54.0667 267.281 41.6 275.281 31.6C283.415 21.4667 296.348 13.8667 314.081 8.79999C331.815 3.59999 355.215 0.999995 384.281 0.999995C413.348 0.999995 436.748 3.59999 454.481 8.79999C472.215 13.8667 485.081 21.4667 493.081 31.6C501.215 41.6 505.281 54.0667 505.281 69C505.281 83.9333 501.215 96.4667 493.081 106.6C485.081 116.6 472.215 124.2 454.481 129.4C436.748 134.467 413.348 137 384.281 137ZM384.281 99C398.015 99 409.881 98.2 419.881 96.6C429.881 94.8667 437.615 91.8667 443.081 87.6C448.548 83.2 451.281 77 451.281 69C451.281 61 448.548 54.8667 443.081 50.6C437.615 46.2 429.881 43.2 419.881 41.6C409.881 39.8667 398.015 39 384.281 39C370.548 39 358.481 39.8667 348.081 41.6C337.815 43.2 329.748 46.2 323.881 50.6C318.148 54.8667 315.281 61 315.281 69C315.281 77 318.148 83.2 323.881 87.6C329.748 91.8667 337.815 94.8667 348.081 96.6C358.481 98.2 370.548 99 384.281 99ZM524.297 86H578.897C579.83 88.8 582.564 91.2 587.097 93.2C591.63 95.0667 597.697 96.5333 605.297 97.6C613.03 98.5333 621.964 99 632.097 99C642.097 99 649.964 98.7333 655.697 98.2C661.564 97.5333 665.697 96.4667 668.097 95C670.497 93.4 671.697 91.2667 671.697 88.6C671.697 86.0667 669.764 84.1333 665.897 82.8C662.03 81.3333 655.164 80.3333 645.297 79.8C635.43 79.2667 621.564 79 603.697 79C590.364 79 578.83 78.4 569.097 77.2C559.497 75.8667 551.564 73.8667 545.297 71.2C539.164 68.4 534.63 64.9333 531.697 60.8C528.764 56.5333 527.297 51.4667 527.297 45.6C527.297 35.4667 530.697 27.1333 537.497 20.6C544.43 13.9333 554.83 8.99999 568.697 5.79999C582.697 2.46666 600.164 0.799997 621.097 0.799997C651.764 0.799997 675.164 5.26666 691.297 14.2C707.564 23 715.697 35.7333 715.697 52.4H663.897C663.23 48 659.097 44.6667 651.497 42.4C643.897 40 633.097 38.8 619.097 38.8C605.23 38.8 594.897 39.6 588.097 41.2C581.43 42.8 578.097 45.5333 578.097 49.4C578.097 51.4 579.03 53 580.897 54.2C582.764 55.4 585.964 56.4 590.497 57.2C595.164 57.8667 601.697 58.3333 610.097 58.6C618.497 58.8667 629.164 59 642.097 59C656.364 59 668.497 59.7333 678.497 61.2C688.497 62.5333 696.564 64.6 702.697 67.4C708.964 70.2 713.497 73.8 716.297 78.2C719.097 82.4667 720.497 87.5333 720.497 93.4C720.497 103.533 717.297 111.8 710.897 118.2C704.497 124.6 694.364 129.333 680.497 132.4C666.63 135.467 648.497 137 626.097 137C613.43 137 601.764 136.267 591.097 134.8C580.564 133.333 571.164 131.2 562.897 128.4C554.63 125.467 547.63 121.933 541.897 117.8C536.164 113.533 531.764 108.8 528.697 103.6C525.764 98.2667 524.297 92.4 524.297 86ZM901.23 117.8H871.23L980.43 4.99999H1030.43V133H980.43V45.8L995.43 52L916.43 133H856.43L777.23 52.2L792.43 46V133H742.43V4.99999H792.43L901.23 117.8ZM1061.45 4.99999H1111.45V133H1061.45V4.99999ZM1379.43 79.6C1378.76 92.2667 1374.16 102.867 1365.63 111.4C1357.1 119.933 1344.5 126.333 1327.83 130.6C1311.3 134.867 1290.36 137 1265.03 137C1245.7 137 1228.36 135.933 1213.03 133.8C1197.7 131.8 1184.63 128.333 1173.83 123.4C1163.03 118.333 1154.76 111.467 1149.03 102.8C1143.3 94.1333 1140.43 83.2 1140.43 70C1140.43 56.8 1143.3 45.8 1149.03 37C1154.76 28.0667 1163.03 21 1173.83 15.8C1184.63 10.4667 1197.7 6.66666 1213.03 4.4C1228.36 2.13333 1245.7 0.999995 1265.03 0.999995C1290.36 0.999995 1311.36 3.33333 1328.03 8C1344.7 12.5333 1357.3 19.2667 1365.83 28.2C1374.36 37.1333 1378.96 48 1379.63 60.8H1327.63C1326.03 56.5333 1323.1 52.8 1318.83 49.6C1314.56 46.2667 1308.16 43.6667 1299.63 41.8C1291.1 39.9333 1279.56 39 1265.03 39C1247.96 39 1234.1 40.0667 1223.43 42.2C1212.76 44.2 1204.96 47.4667 1200.03 52C1195.1 56.5333 1192.63 62.5333 1192.63 70C1192.63 76.8 1195.1 82.3333 1200.03 86.6C1204.96 90.8667 1212.76 94 1223.43 96C1234.1 98 1247.96 99 1265.03 99C1279.56 99 1291.03 98.1333 1299.43 96.4C1307.96 94.6667 1314.36 92.3333 1318.63 89.4C1322.9 86.3333 1325.83 83.0667 1327.43 79.6H1379.43ZM326.428 333.8L307.828 344.4V245H357.828V373H307.828L157.228 285.8L175.828 275V373H125.828V245H175.828L326.428 333.8ZM504.789 377C475.722 377 452.322 374.467 434.589 369.4C416.856 364.2 403.922 356.6 395.789 346.6C387.789 336.467 383.789 323.933 383.789 309C383.789 294.067 387.789 281.6 395.789 271.6C403.922 261.467 416.856 253.867 434.589 248.8C452.322 243.6 475.722 241 504.789 241C533.856 241 557.256 243.6 574.989 248.8C592.722 253.867 605.589 261.467 613.589 271.6C621.722 281.6 625.789 294.067 625.789 309C625.789 323.933 621.722 336.467 613.589 346.6C605.589 356.6 592.722 364.2 574.989 369.4C557.256 374.467 533.856 377 504.789 377ZM504.789 339C518.522 339 530.389 338.2 540.389 336.6C550.389 334.867 558.122 331.867 563.589 327.6C569.056 323.2 571.789 317 571.789 309C571.789 301 569.056 294.867 563.589 290.6C558.122 286.2 550.389 283.2 540.389 281.6C530.389 279.867 518.522 279 504.789 279C491.056 279 478.989 279.867 468.589 281.6C458.322 283.2 450.256 286.2 444.389 290.6C438.656 294.867 435.789 301 435.789 309C435.789 317 438.656 323.2 444.389 327.6C450.256 331.867 458.322 334.867 468.589 336.6C478.989 338.2 491.056 339 504.789 339ZM707.295 373L629.695 245H686.095L752.295 368H731.895L798.095 245H853.695L776.895 373H707.295ZM877.573 353.6V323.6H1014.37V353.6H877.573ZM832.773 373L918.573 245H974.173L1060.77 373H1005.77L931.573 258.4H961.373L887.773 373H832.773Z" fill="white"/>
</svg>
