<svg width="87" height="10" viewBox="0 0 87 10" fill="none" xmlns="http://www.w3.org/2000/svg">
<g filter="url(#filter0_b_103_2285)">
<path d="M1.08156 8L0.0515625 6.97V2.03L1.08156 1H4.26156L5.29156 2.03V3.29H3.88156V2.72L3.57656 2.415H1.76156L1.46156 2.73V6.285L1.76156 6.585H3.57656L3.88156 6.28V5.59H2.49656V4.18H5.29156V6.97L4.26156 8H1.08156ZM1.18156 7.775H4.16156L5.07656 6.865V4.4H2.71656V5.38H4.10156V6.375L3.67656 6.8H1.67656L1.24656 6.39V2.615L1.67156 2.195H3.67656L4.10156 2.615V3.075H5.07656V2.13L4.16156 1.215H1.18156L0.271563 2.13V6.865L1.18156 7.775ZM7.44328 8L6.41328 6.97V5.545L7.44328 4.515H10.1633V4.32L9.85828 4.015H6.48328V2.6H10.5483L11.5783 3.63V6.97L10.5483 8H7.44328ZM8.03328 6.805L7.60828 6.38V6L7.94328 5.66H10.3933V6.37L9.95828 6.805H8.03328ZM7.54828 7.78H10.4483L11.3683 6.86V3.73L10.4533 2.815H6.71328V3.79H9.96328L10.3933 4.22V4.725H7.53828L6.63328 5.635V6.87L7.54828 7.78ZM8.13328 6.585H9.85828L10.1633 6.28V5.88H8.03328L7.82328 6.09V6.28L8.13328 6.585ZM12.3578 8V6.585H13.7078V1.915H12.3578V0.499999H15.1178V6.585H16.4678V8H12.3578ZM12.5778 7.78H16.2528V6.805H14.8928V0.715H12.5778V1.695H13.9228V6.805H12.5778V7.78ZM18.2734 8L17.2434 6.97V5.545L18.2734 4.515H20.9934V4.32L20.6884 4.015H17.3134V2.6H21.3784L22.4084 3.63V6.97L21.3784 8H18.2734ZM18.8634 6.805L18.4384 6.38V6L18.7734 5.66H21.2234V6.37L20.7884 6.805H18.8634ZM18.3784 7.78H21.2784L22.1984 6.86V3.73L21.2834 2.815H17.5434V3.79H20.7934L21.2234 4.22V4.725H18.3684L17.4634 5.635V6.87L18.3784 7.78ZM18.9634 6.585H20.6884L20.9934 6.28V5.88H18.8634L18.6534 6.09V6.28L18.9634 6.585ZM23.7629 10V8.59H26.5729L26.9779 8.185V7.9L26.8779 8H24.5429L23.5129 6.97V3.63L24.5429 2.6H27.3579L28.3879 3.63V8.97L27.3579 10H23.7629ZM23.9829 9.79H27.2379L28.1729 8.845V3.735L27.2529 2.81H24.6429L23.7329 3.73V6.855L24.6529 7.78H26.8079L27.2029 7.385V8.28L26.6679 8.81H23.9829V9.79ZM25.1479 6.805L24.7079 6.365V4.215L25.1379 3.785H26.7679L27.2029 4.22V6.165L26.5579 6.805H25.1479ZM25.2329 6.585H26.4779L26.9779 6.085V4.315L26.6679 4.01H25.2329L24.9279 4.315V6.28L25.2329 6.585ZM30.4876 8V4.01H29.2426V2.6H30.4876V1.23H31.9026V2.6H33.1426V4.01H31.9026V6.585H33.1076V8H30.4876ZM30.7076 7.78H32.8876V6.81H31.6826V3.79H32.9276V2.815H31.6826V1.45H30.7076V2.815H29.4576V3.79H30.7076V7.78ZM35.3803 1.815V0.499999H36.9903V1.815H35.3803ZM35.6153 1.605H36.7553V0.695H35.6153V1.605ZM34.2453 8V6.585H35.5803V4.015H34.2453V2.6H36.9903V6.585H38.3253V8H34.2453ZM34.4653 7.78H38.1103V6.805H36.7653V2.815H34.4653V3.795H35.7903V6.805H34.4653V7.78ZM40.1288 8L39.0988 6.97V3.63L40.1288 2.6H43.9488V4.015H40.8188L40.5138 4.32V6.28L40.8188 6.585H43.9488V8H40.1288ZM40.2388 7.78H43.7288V6.805H40.7338L40.2938 6.37V4.22L40.7238 3.79H43.7288V2.815H40.2338L39.3188 3.73V6.865L40.2388 7.78ZM48.9331 8L47.9031 6.97V2.03L48.9331 1H52.1131L53.1431 2.03V3.29H51.7331V2.72L51.4281 2.415H49.6131L49.3131 2.73V6.285L49.6131 6.585H51.4281L51.7331 6.28V5.59H50.3481V4.18H53.1431V6.97L52.1131 8H48.9331ZM49.0331 7.775H52.0131L52.9281 6.865V4.4H50.5681V5.38H51.9531V6.375L51.5281 6.8H49.5281L49.0981 6.39V2.615L49.5231 2.195H51.5281L51.9531 2.615V3.075H52.9281V2.13L52.0131 1.215H49.0331L48.1231 2.13V6.865L49.0331 7.775ZM55.3998 1.815V0.499999H57.0098V1.815H55.3998ZM55.6348 1.605H56.7748V0.695H55.6348V1.605ZM54.2648 8V6.585H55.5998V4.015H54.2648V2.6H57.0098V6.585H58.3448V8H54.2648ZM54.4848 7.78H58.1298V6.805H56.7848V2.815H54.4848V3.795H55.8098V6.805H54.4848V7.78ZM59.3684 10V8.59H62.1784L62.5834 8.185V7.9L62.4834 8H60.1484L59.1184 6.97V3.63L60.1484 2.6H62.9634L63.9934 3.63V8.97L62.9634 10H59.3684ZM59.5884 9.79H62.8434L63.7784 8.845V3.735L62.8584 2.81H60.2484L59.3384 3.73V6.855L60.2584 7.78H62.4134L62.8084 7.385V8.28L62.2734 8.81H59.5884V9.79ZM60.7534 6.805L60.3134 6.365V4.215L60.7434 3.785H62.3734L62.8084 4.22V6.165L62.1634 6.805H60.7534ZM60.8384 6.585H62.0834L62.5834 6.085V4.315L62.2734 4.01H60.8384L60.5334 4.315V6.28L60.8384 6.585ZM65.423 10V8.59H68.233L68.638 8.185V7.9L68.538 8H66.203L65.173 6.97V3.63L66.203 2.6H69.018L70.048 3.63V8.97L69.018 10H65.423ZM65.643 9.79H68.898L69.833 8.845V3.735L68.913 2.81H66.303L65.393 3.73V6.855L66.313 7.78H68.468L68.863 7.385V8.28L68.328 8.81H65.643V9.79ZM66.808 6.805L66.368 6.365V4.215L66.798 3.785H68.428L68.863 4.22V6.165L68.218 6.805H66.808ZM66.893 6.585H68.138L68.638 6.085V4.315L68.328 4.01H66.893L66.588 4.315V6.28L66.893 6.585ZM70.9027 8V6.585H72.2527V1.915H70.9027V0.499999H73.6627V6.585H75.0127V8H70.9027ZM71.1227 7.78H74.7977V6.805H73.4377V0.715H71.1227V1.695H72.4677V6.805H71.1227V7.78ZM79.9233 2.6L80.9533 3.63V5.055L79.9233 6.085H77.2033V6.28L77.5083 6.585H80.8833V8H76.8183L75.7883 6.97V3.63L76.8183 2.6H79.9233ZM79.3333 3.795L79.7583 4.22V4.6L79.4233 4.94H76.9733V4.23L77.4083 3.795H79.3333ZM79.8183 2.82H76.9183L75.9983 3.74V6.87L76.9133 7.785H80.6533V6.81H77.4033L76.9733 6.38V5.875H79.8283L80.7333 4.965V3.73L79.8183 2.82ZM79.2333 4.015H77.5083L77.2033 4.32V4.72H79.3333L79.5433 4.51V4.32L79.2333 4.015ZM82.1078 8V6.585H85.2578L85.5628 6.28V6.305L85.2678 6.005H83.0878L82.0578 4.975V3.63L83.0878 2.6H86.8728V4.015H83.7728L83.4678 4.32V4.29L83.7728 4.595H85.9428L86.9728 5.625V6.97L85.9428 8H82.1078ZM82.3228 7.78H85.8528L86.7528 6.87V5.71L85.8478 4.81H83.6628L83.2728 4.41V4.205L83.6728 3.795H86.6578V2.82H83.1878L82.2778 3.725V4.885L83.1778 5.78H85.3628L85.7628 6.19V6.39L85.3628 6.8H82.3228V7.78Z" fill="white"/>
</g>
<defs>
<filter id="filter0_b_103_2285" x="-3.94843" y="-3.5" width="94.9213" height="17.5" filterUnits="userSpaceOnUse" color-interpolation-filters="sRGB">
<feFlood flood-opacity="0" result="BackgroundImageFix"/>
<feGaussianBlur in="BackgroundImageFix" stdDeviation="2"/>
<feComposite in2="SourceAlpha" operator="in" result="effect1_backgroundBlur_103_2285"/>
<feBlend mode="normal" in="SourceGraphic" in2="effect1_backgroundBlur_103_2285" result="shape"/>
</filter>
</defs>
</svg>
